<?xml version="1.0" standalone="no"?>
<!DOCTYPE svg PUBLIC "-//W3C//DTD SVG 20010904//EN"
 "http://www.w3.org/TR/2001/REC-SVG-20010904/DTD/svg10.dtd">
<svg version="1.0" xmlns="http://www.w3.org/2000/svg"
 width="936.000000pt" height="936.000000pt" viewBox="0 0 936.000000 936.000000"
 preserveAspectRatio="xMidYMid meet">
<metadata>
Created by potrace 1.14, written by Peter Selinger 2001-2017
</metadata>
<g transform="translate(0.000000,936.000000) scale(0.100000,-0.100000)"
fill="#000000" stroke="none">
<path d="M3145 7485 c-99 -19 -222 -58 -296 -96 -31 -15 -214 -122 -406 -237
-192 -115 -441 -262 -554 -327 -295 -170 -333 -196 -444 -309 -111 -111 -176
-207 -237 -347 -83 -194 -79 -135 -76 -1035 l3 -799 33 -95 c88 -252 222 -433
422 -570 95 -64 825 -501 1090 -652 254 -144 376 -186 573 -195 l117 -6 0 462
0 461 -89 0 c-123 0 -134 10 -139 119 -5 95 7 85 -160 142 -64 23 -155 61
-201 85 -47 24 -96 44 -111 44 -18 0 -41 -15 -75 -50 -43 -43 -54 -50 -89 -50
-38 0 -46 6 -149 113 -159 164 -161 172 -75 264 45 47 50 56 44 86 -3 18 -20
54 -36 80 -36 58 -83 165 -109 255 -31 104 -40 112 -117 112 -37 0 -77 6 -93
15 -45 23 -53 57 -49 213 3 133 4 142 27 166 22 23 32 26 96 26 91 0 100 9
148 151 20 58 59 152 86 209 28 57 51 111 51 120 0 10 -21 40 -46 66 -54 58
-67 86 -55 117 5 12 63 75 128 140 147 144 154 146 243 61 68 -64 61 -64 190
1 47 24 132 59 188 79 57 20 117 44 133 53 27 16 29 21 29 83 0 83 23 126 74
135 19 4 100 5 181 3 l147 -3 25 -29 c22 -26 24 -36 21 -102 -2 -41 1 -74 5
-74 5 0 5 -5 2 -10 -4 -6 -3 -9 2 -8 15 4 82 -25 77 -34 -3 -4 2 -5 10 -2 22
8 118 -25 110 -38 -4 -7 -2 -8 5 -4 15 9 53 -3 46 -15 -3 -5 0 -6 8 -3 8 3 54
-15 101 -40 48 -25 97 -46 109 -46 14 0 42 19 72 50 41 42 55 50 85 50 37 0
85 -36 85 -64 0 -13 67 -76 81 -76 5 0 20 -16 33 -35 13 -19 27 -32 31 -30 15
9 50 -47 50 -78 0 -22 -13 -44 -51 -84 -61 -64 -60 -68 11 -211 27 -54 63
-142 81 -197 17 -55 38 -108 46 -117 11 -12 39 -19 94 -24 104 -9 114 -19 114
-125 l0 -79 398 0 397 0 0 388 c0 343 -2 395 -19 457 -19 75 -61 186 -94 250
-12 22 -20 43 -19 48 1 4 -3 7 -9 7 -5 0 -8 4 -5 9 3 5 -1 12 -10 15 -8 3 -13
10 -10 15 4 5 3 11 -2 13 -4 1 -23 23 -42 48 -71 93 -151 177 -214 225 -36 28
-65 55 -65 61 -1 6 -17 19 -36 30 -19 10 -35 22 -35 26 0 5 -9 8 -20 8 -11 0
-20 5 -20 10 0 6 -9 10 -20 10 -11 0 -20 5 -20 10 0 6 -11 10 -25 10 -33 0
-95 32 -264 135 -329 200 -743 442 -819 477 -142 67 -250 90 -447 94 -121 2
-193 -1 -250 -11z"/>
<path d="M7223 6450 c-13 -5 -23 -7 -23 -4 0 2 -10 -4 -22 -16 -12 -11 -19
-22 -16 -26 4 -3 -11 -24 -33 -46 -21 -22 -39 -47 -39 -54 0 -11 -36 -14 -195
-14 l-196 0 -37 37 c-20 21 -36 39 -34 40 7 8 -1 22 -27 52 -28 31 -32 32 -92
29 -35 -1 -70 -8 -76 -14 -7 -7 -22 -10 -33 -7 -11 3 -20 0 -20 -6 0 -6 -13
-11 -30 -11 -16 0 -30 -4 -30 -10 0 -5 -8 -10 -18 -10 -10 0 -24 -9 -32 -20
-8 -11 -25 -20 -38 -20 -13 0 -20 -4 -17 -10 3 -5 -1 -10 -10 -10 -8 0 -45
-29 -80 -65 l-65 -65 0 -63 c0 -51 4 -65 20 -77 11 -8 20 -22 20 -32 0 -10 5
-18 10 -18 20 0 9 -48 -17 -76 -29 -31 -73 -108 -73 -128 0 -6 -9 -18 -20 -26
-12 -8 -20 -26 -20 -42 0 -15 -4 -28 -10 -28 -5 0 -10 -5 -10 -11 0 -6 -18
-28 -40 -49 -21 -20 -36 -40 -33 -44 4 -3 -34 -6 -83 -6 -80 -1 -91 -3 -105
-23 -20 -28 -31 -216 -22 -393 6 -121 8 -129 33 -156 26 -26 32 -28 110 -28
80 0 83 -1 111 -32 27 -31 41 -76 19 -63 -5 3 -10 1 -10 -5 0 -6 8 -10 18 -8
22 4 64 -75 57 -109 -3 -20 -1 -22 9 -14 11 9 23 -2 57 -49 24 -33 47 -60 52
-60 17 0 6 -66 -13 -80 -11 -8 -20 -22 -20 -32 0 -10 -4 -18 -10 -18 -6 0 -10
-28 -10 -65 0 -57 3 -69 25 -90 13 -14 31 -25 40 -25 8 0 -16 -29 -55 -66 -69
-65 -82 -84 -58 -84 14 0 137 117 130 125 -3 3 0 5 6 5 7 0 12 -4 12 -10 0 -5
7 -10 15 -10 9 0 25 -9 37 -20 12 -11 28 -20 35 -20 8 0 11 -4 8 -10 -4 -6 5
-10 19 -10 14 0 26 -4 26 -10 0 -5 9 -10 20 -10 11 0 20 -4 20 -10 0 -5 9 -10
20 -10 11 0 20 -4 20 -10 0 -5 14 -10 30 -10 17 0 30 -4 30 -10 0 -12 127 -2
158 12 12 6 22 20 22 30 0 10 5 18 11 18 6 0 9 6 6 13 -2 6 11 27 29 45 l32
32 201 0 202 0 34 -34 c18 -19 31 -37 27 -41 -4 -4 1 -12 11 -20 16 -11 9 -15
-53 -30 -39 -9 -85 -27 -103 -39 -35 -24 -39 -45 -24 -139 8 -46 7 -48 -24
-65 -17 -9 -54 -34 -82 -54 -29 -21 -57 -38 -64 -38 -6 0 -38 16 -71 35 -49
29 -63 34 -84 26 -60 -23 -177 -204 -164 -254 3 -14 28 -39 61 -61 32 -21 55
-44 55 -54 0 -20 -37 -203 -42 -207 -14 -10 -88 -21 -90 -13 -2 6 -19 -4 -38
-21 -33 -30 -35 -35 -33 -88 4 -119 45 -228 89 -239 14 -4 50 -1 81 5 30 6 59
9 63 6 12 -7 120 -172 120 -182 0 -4 -16 -33 -35 -63 -19 -30 -35 -63 -35 -74
0 -51 207 -193 261 -179 12 3 34 24 50 47 49 68 59 78 76 72 8 -3 54 -14 101
-23 48 -9 90 -21 93 -26 4 -6 12 -36 19 -69 15 -79 36 -93 133 -85 81 6 175
37 202 67 14 16 17 30 11 72 -3 29 -9 63 -12 74 -5 17 4 27 48 54 29 18 66 43
81 56 37 31 59 30 112 -6 64 -44 94 -40 147 19 51 57 108 158 108 193 0 31
-14 48 -74 88 -45 30 -48 35 -41 64 4 17 12 60 18 96 7 36 16 70 20 77 4 7 34
17 67 24 86 17 93 29 88 141 -5 104 -30 175 -70 202 -20 13 -33 14 -87 4 -72
-14 -71 -14 -134 84 -15 24 -34 52 -42 64 -14 18 -12 25 20 75 19 30 35 66 35
81 0 53 -174 178 -248 178 -26 0 -37 -8 -61 -42 -50 -72 -58 -79 -89 -71 -15
4 -61 14 -102 23 -82 17 -85 20 -103 118 -6 30 -5 32 23 32 17 0 30 5 30 10 0
6 9 10 20 10 11 0 20 5 20 10 0 6 9 10 20 10 11 0 20 5 20 10 0 6 9 10 20 10
11 0 20 5 20 10 0 6 9 10 20 10 11 0 20 5 20 10 0 6 8 10 18 10 10 0 24 9 32
20 8 11 20 20 27 20 8 0 34 20 58 45 l45 44 0 74 c0 61 -3 75 -20 87 -11 8
-20 22 -20 32 0 10 -4 18 -10 18 -25 0 -8 51 30 86 22 21 40 43 40 50 0 6 9
19 20 29 11 10 20 24 20 32 0 7 5 13 10 13 6 0 10 9 10 20 0 11 5 20 10 20 6
0 10 17 10 38 0 30 7 44 33 68 51 46 72 54 143 54 76 0 97 14 101 69 1 20 7
37 13 39 14 5 14 362 0 362 -5 0 -10 16 -10 36 0 28 -7 44 -30 65 -28 27 -35
29 -115 29 -48 0 -85 4 -85 10 0 5 -17 27 -38 48 -42 43 -82 105 -82 128 0 8
-4 14 -8 14 -4 0 -13 15 -20 33 -7 17 -27 49 -46 71 -30 34 -33 42 -25 69 5
17 12 33 16 36 22 16 33 58 33 121 0 62 -3 74 -25 95 -13 14 -29 25 -36 25 -6
0 -24 14 -39 30 -15 17 -35 30 -44 30 -9 0 -16 5 -16 10 0 6 -9 10 -20 10 -11
0 -20 5 -20 10 0 6 -9 10 -20 10 -11 0 -20 5 -20 10 0 6 -9 10 -20 10 -11 0
-20 5 -20 10 0 6 -13 10 -29 10 -16 0 -31 4 -33 9 -5 13 -130 22 -155 11z
m-213 -610 c0 -5 14 -10 30 -10 17 0 30 -4 30 -10 0 -5 9 -10 20 -10 11 0 20
-4 20 -10 0 -5 9 -10 20 -10 11 0 20 -4 20 -10 0 -5 7 -10 15 -10 25 0 191
-167 216 -219 13 -25 27 -47 32 -49 4 -2 7 -12 7 -23 0 -10 5 -19 10 -19 6 0
10 -51 10 -134 0 -79 -4 -137 -10 -141 -5 -3 -10 -15 -10 -26 0 -10 -4 -19
-10 -19 -5 0 -10 -9 -10 -20 0 -11 -3 -20 -7 -20 -8 0 -33 -48 -33 -63 0 -16
-164 -172 -177 -169 -7 2 -13 -2 -13 -8 0 -5 -9 -10 -20 -10 -11 0 -20 -4 -20
-10 0 -5 -9 -10 -20 -10 -11 0 -20 -4 -20 -10 0 -5 -13 -10 -30 -10 -16 0 -30
-4 -30 -10 0 -6 -50 -10 -130 -10 -80 0 -130 4 -130 10 0 6 -13 10 -28 10 -16
0 -34 8 -42 20 -8 11 -25 20 -38 20 -27 0 -242 207 -242 234 0 9 -4 16 -10 16
-5 0 -10 16 -10 36 0 21 -4 33 -10 29 -6 -4 -10 7 -10 24 0 17 -4 31 -10 31
-6 0 -10 40 -10 100 0 60 4 100 10 100 6 0 10 14 10 30 0 17 5 30 10 30 6 0
10 9 10 20 0 11 3 20 8 20 7 0 32 47 32 60 0 12 159 170 170 170 6 0 8 5 5 10
-3 6 3 10 14 10 12 0 21 5 21 10 0 6 9 10 20 10 11 0 20 5 20 10 0 6 14 10 30
10 17 0 30 5 30 10 0 6 9 10 19 10 11 0 23 5 26 10 3 6 52 10 111 10 63 0 104
-4 104 -10z m482 -2172 c79 -37 142 -98 180 -176 31 -62 33 -74 33 -167 0 -89
-3 -107 -28 -161 -16 -35 -49 -82 -77 -109 l-48 -48 -7 47 c-11 74 1 134 46
220 38 74 41 83 37 146 -5 88 -37 139 -111 176 -64 33 -173 43 -244 23 -63
-17 -138 -89 -151 -144 -27 -118 -34 -141 -48 -156 -20 -22 -17 -50 5 -56 11
-3 20 -12 20 -21 0 -10 6 -39 14 -66 17 -62 49 -90 93 -81 40 7 64 -21 64 -77
l0 -38 113 -1 112 -1 -45 -15 c-73 -23 -212 -13 -278 21 -137 70 -212 189
-212 336 0 168 99 308 255 360 83 28 201 22 277 -12z m-42 -104 c71 -21 121
-69 119 -115 -1 -25 -3 -28 -6 -11 -6 31 -75 100 -110 108 -15 4 -33 10 -39
15 -5 4 -32 7 -60 5 -53 -4 -123 -41 -124 -66 0 -8 -7 -24 -15 -34 -8 -11 -15
-31 -15 -45 0 -29 36 -71 61 -71 10 0 21 -5 25 -11 3 -6 17 -9 30 -6 14 2 27
0 30 -4 3 -5 16 -6 30 -3 14 4 24 2 24 -5 0 -6 5 -11 12 -11 6 0 22 -10 35
-22 l23 -21 23 21 c13 12 30 22 38 22 12 0 9 -14 -15 -62 -27 -54 -31 -73 -31
-140 l1 -78 -83 0 c-82 0 -83 0 -83 25 0 15 -14 41 -33 62 -29 31 -40 36 -74
35 l-40 -2 -6 68 c-4 38 -12 71 -20 76 -10 7 -10 19 5 65 9 31 20 73 23 94 9
54 50 96 110 112 67 18 101 18 165 -1z m110 -231 c-10 -16 -11 -15 -6 7 3 14
6 32 7 40 1 8 4 5 6 -7 2 -12 -1 -30 -7 -40z"/>
<path d="M6733 5640 c-34 -14 -28 -37 17 -65 46 -29 53 -62 20 -95 -25 -25
-27 -25 -75 5 -70 43 -70 43 -53 -87 1 -9 4 -15 7 -12 3 2 18 -8 33 -23 26
-24 37 -28 93 -28 35 0 67 -3 71 -7 9 -9 -36 -47 -56 -48 -9 0 -55 -39 -103
-88 -63 -64 -87 -94 -87 -113 0 -33 60 -92 88 -87 27 4 202 175 202 197 0 9 9
24 20 33 17 15 21 15 33 3 8 -8 18 -11 22 -7 4 4 5 2 3 -4 -1 -5 45 -58 103
-117 115 -116 134 -125 183 -86 20 15 26 30 26 57 0 34 -9 47 -132 167 l-133
130 73 65 c39 36 96 86 125 112 l52 47 -32 33 -33 32 -50 -49 c-27 -27 -50
-54 -50 -61 0 -6 -29 -38 -64 -72 -35 -34 -61 -65 -57 -69 3 -4 -8 5 -26 21
l-31 28 19 34 c10 19 14 34 9 34 -6 0 -10 5 -10 12 0 19 -50 78 -84 99 -33 20
-86 24 -123 9z"/>
<path d="M3293 6229 c-40 -12 -101 -82 -109 -126 -4 -19 -4 -50 -1 -70 7 -41
51 -135 73 -158 9 -8 12 -15 7 -15 -4 -1 -40 -2 -79 -3 -73 -2 -114 -21 -114
-53 0 -8 -12 -11 -39 -7 -34 5 -41 2 -57 -21 -9 -15 -19 -49 -22 -75 -4 -43
-8 -50 -36 -64 -56 -26 -188 -139 -217 -185 -16 -25 -31 -64 -35 -88 -3 -23
-12 -45 -19 -48 -8 -3 -11 2 -8 14 3 11 -7 31 -25 51 -26 29 -32 32 -46 20
-23 -19 -20 -42 9 -74 22 -23 24 -30 14 -48 -8 -15 -14 -18 -22 -10 -12 12
-56 14 -73 3 -19 -13 -23 -41 -8 -56 15 -16 73 -12 85 6 3 5 22 -7 42 -27 27
-27 32 -37 22 -42 -21 -8 -20 -96 1 -114 14 -11 18 -10 30 6 17 22 19 91 3
100 -7 5 -3 14 9 26 26 24 36 72 22 100 -12 21 -12 21 11 5 87 -61 225 50 275
221 13 45 14 57 2 70 -12 15 -11 15 12 0 13 -9 43 -17 65 -17 l40 0 29 -82
c40 -113 60 -151 96 -182 22 -18 26 -26 15 -26 -9 0 -27 -11 -40 -25 -42 -41
-28 -155 19 -155 20 0 19 -1 -3 -13 -29 -14 -92 -124 -89 -152 3 -16 13 -21
58 -26 50 -5 51 -6 14 -7 -62 -3 -94 -32 -94 -88 0 -73 20 -188 35 -200 11 -8
3 -11 -30 -11 -35 0 -53 -6 -82 -29 -56 -46 -77 -78 -69 -108 l6 -26 149 0
c131 0 150 2 164 18 21 23 21 45 1 97 -19 49 -19 46 0 120 21 81 20 153 -2
195 -16 33 -16 36 0 52 9 9 22 36 28 59 13 48 2 80 -34 97 -18 9 -18 11 -3 11
11 1 28 -17 45 -44 34 -56 47 -61 78 -28 14 15 22 20 19 11 -7 -18 18 -84 41
-109 14 -15 14 -20 -2 -50 -14 -27 -16 -49 -10 -123 3 -49 12 -101 19 -116 11
-22 11 -30 0 -46 -20 -30 -28 -111 -13 -129 18 -22 308 -22 316 0 11 27 -6 65
-42 100 -42 41 -85 55 -147 48 -26 -3 -54 -2 -64 3 -13 6 -3 10 37 14 l55 5
11 65 c20 110 17 158 -9 184 -20 20 -22 26 -11 40 8 12 9 27 4 48 -13 43 -68
126 -88 131 -12 3 -11 5 5 6 17 1 25 10 33 42 20 72 -8 139 -57 139 -24 0 -24
1 8 28 18 15 36 26 41 25 4 -2 4 5 1 14 -4 11 -3 14 5 9 8 -5 10 -1 5 10 -4
12 -3 15 5 10 8 -5 10 -1 5 10 -4 12 -3 15 5 10 8 -5 10 -1 5 10 -5 13 -3 15
7 9 9 -5 11 -4 6 3 -6 10 6 55 49 187 2 6 4 0 4 -11 1 -19 8 -23 45 -25 24 -2
43 -2 41 1 -2 4 5 11 16 18 18 11 18 11 8 -6 -29 -46 66 -225 144 -273 36 -21
106 -25 140 -8 18 9 20 9 10 -2 -16 -16 -17 -63 -3 -90 7 -12 21 -19 41 -19
24 0 34 7 52 37 15 26 23 33 25 22 4 -20 70 -33 89 -17 16 13 17 40 1 56 -17
17 -75 15 -86 -3 -7 -13 -11 -11 -21 11 -11 24 -9 30 14 54 28 29 32 52 11 69
-10 8 -19 6 -40 -10 -27 -21 -34 -57 -15 -76 7 -7 3 -9 -15 -6 -18 4 -26 12
-26 27 0 79 -76 185 -192 266 -39 27 -77 50 -84 50 -7 0 -12 14 -12 34 0 84
-21 116 -76 116 -25 0 -26 -3 -28 -57 l-1 -58 -6 62 c-9 89 -29 106 -126 111
l-74 4 16 24 c8 13 19 21 24 18 5 -3 6 3 2 12 -5 13 -3 15 7 9 8 -5 11 -4 7 2
-4 6 0 30 9 54 17 49 24 160 10 151 -5 -3 -7 2 -3 11 3 9 3 16 -1 15 -4 -1
-22 12 -40 30 -51 48 -131 64 -209 41z m148 -115 c14 -7 31 -20 38 -28 12 -14
1 -16 -110 -16 l-124 0 27 26 c42 42 108 49 169 18z m-63 -261 c-15 -2 -42 -2
-60 0 -18 2 -6 4 27 4 33 0 48 -2 33 -4z m92 -790 c-8 -3 -24 -13 -35 -22 -20
-16 -20 -16 -1 7 11 12 26 22 35 21 14 0 14 -1 1 -6z m78 -180 c-10 -2 -26 -2
-35 0 -10 3 -2 5 17 5 19 0 27 -2 18 -5z"/>
<path d="M2546 5169 c-30 -35 -30 -56 -3 -73 14 -9 22 -6 42 19 28 33 30 78 4
83 -9 2 -28 -11 -43 -29z"/>
<path d="M4130 5185 c-15 -18 -6 -46 25 -75 48 -45 75 4 33 60 -24 33 -40 37
-58 15z"/>
<path d="M4066 5144 c-37 -37 0 -136 39 -104 15 13 20 74 9 104 -8 20 -28 20
-48 0z"/>
<path d="M4730 4990 c-128 -17 -272 -75 -295 -121 -19 -36 -19 -70 1 -158 23
-100 17 -113 -65 -156 -38 -20 -93 -57 -122 -82 -70 -60 -90 -66 -139 -47 -22
9 -40 20 -40 24 0 17 -104 60 -146 60 -50 0 -85 -26 -154 -115 -23 -30 -46
-53 -50 -50 -4 3 -7 -1 -7 -8 1 -6 -16 -48 -38 -92 -48 -101 -55 -160 -22
-196 13 -14 46 -39 73 -54 68 -39 104 -74 104 -103 0 -13 -9 -58 -19 -100 -11
-43 -22 -106 -24 -141 -6 -78 -21 -94 -105 -111 -108 -22 -131 -30 -156 -61
-22 -25 -26 -41 -26 -90 0 -132 45 -308 96 -376 38 -50 75 -57 178 -33 48 11
95 20 105 20 21 0 49 -30 84 -91 14 -25 47 -71 72 -102 57 -70 67 -97 54 -137
-6 -16 -15 -30 -20 -30 -5 0 -9 -5 -9 -10 0 -6 -16 -34 -35 -63 -48 -72 -47
-101 9 -158 97 -96 175 -149 286 -191 112 -44 139 -35 214 75 21 31 43 54 47
51 5 -3 6 1 4 8 -6 16 50 52 65 43 11 -7 19 -9 110 -29 36 -8 88 -16 115 -19
91 -10 97 -16 125 -133 20 -88 38 -116 83 -137 65 -31 263 -1 401 62 56 25 69
36 82 67 14 34 14 44 -5 132 -25 114 -21 123 61 170 29 17 86 56 126 86 42 32
84 56 98 56 21 0 131 -52 144 -69 16 -20 62 -33 96 -28 66 11 189 157 254 302
51 113 38 149 -79 225 -101 65 -108 80 -85 157 8 27 22 93 30 148 8 55 21 106
28 114 8 7 51 21 97 32 158 35 176 57 164 195 -12 146 -70 317 -118 348 -33
22 -91 25 -162 9 -96 -22 -112 -17 -162 52 -132 181 -153 211 -153 228 0 10
25 54 55 100 77 115 77 141 -6 218 -106 98 -278 189 -358 189 -51 0 -82 -26
-132 -111 -50 -86 -68 -96 -140 -76 -30 9 -99 21 -154 28 -55 6 -107 15 -116
20 -20 10 -32 41 -55 139 -24 104 -53 130 -144 129 -36 -1 -90 -5 -120 -9z
m415 -851 c25 -6 42 -15 39 -20 -3 -5 2 -6 11 -3 10 4 56 -13 113 -42 83 -41
106 -58 155 -116 33 -39 55 -73 51 -80 -4 -7 -3 -8 4 -4 7 4 22 -15 41 -51 98
-195 99 -375 4 -573 -27 -56 -54 -94 -112 -150 -169 -167 -406 -228 -631 -161
l-65 19 48 1 c61 1 100 21 132 68 41 62 31 147 -24 197 -11 10 -18 23 -15 27
3 5 -2 6 -10 3 -12 -5 -14 -1 -7 24 20 70 67 106 176 137 166 47 279 133 309
236 9 29 16 59 16 66 0 7 5 13 10 13 12 0 100 84 100 94 0 4 -4 4 -10 1 -6 -4
-10 12 -10 40 0 53 -27 101 -77 135 -27 19 -42 22 -93 18 -52 -4 -65 -9 -95
-38 -62 -61 -70 -138 -21 -203 14 -19 23 -37 18 -42 -4 -5 -2 -6 3 -2 24 13
35 -8 24 -46 -14 -52 -67 -91 -168 -123 -47 -14 -108 -37 -134 -50 -27 -13
-51 -24 -53 -24 -2 0 -4 51 -4 114 l0 115 30 21 c17 12 35 31 41 43 16 29 39
118 29 112 -4 -3 -11 6 -14 19 -3 14 -17 38 -31 54 -13 16 -23 31 -20 33 5 5
-9 8 -90 15 -52 5 -65 2 -95 -18 -65 -44 -88 -132 -54 -205 10 -19 28 -41 40
-50 l24 -15 0 -234 0 -234 -40 -41 c-38 -40 -40 -44 -40 -105 0 -60 2 -67 38
-106 l37 -41 -45 28 c-72 45 -110 77 -104 86 3 5 -2 6 -10 3 -10 -4 -33 19
-71 70 -32 42 -62 76 -67 76 -5 0 -7 4 -4 9 3 5 -6 40 -21 77 -21 56 -27 91
-31 188 -5 125 10 232 30 220 6 -4 8 -2 4 4 -19 31 100 213 181 276 73 58 169
110 189 102 10 -4 12 -2 8 6 -5 8 0 9 15 5 13 -3 20 -3 16 1 -25 25 247 42
330 21z m-320 -209 c-3 -5 0 -7 8 -4 21 8 47 -23 47 -57 0 -36 -39 -79 -72
-79 -13 0 -33 7 -45 15 -18 13 -21 22 -16 47 4 22 3 29 -5 24 -20 -12 -13 17
10 41 21 22 86 34 73 13z m540 -15 c29 -29 33 -75 8 -97 -44 -38 -105 -32
-129 13 -40 79 58 148 121 84z m-502 -757 c39 -45 2 -118 -59 -118 -44 0 -74
29 -74 73 0 69 86 98 133 45z"/>
</g>
</svg>
